<?xml version="1.0" encoding="utf-8"?>
<!-- Generator: Adobe Illustrator 22.0.1, SVG Export Plug-In . SVG Version: 6.00 Build 0)  -->
<svg version="1.1" id="Layer_1" xmlns="http://www.w3.org/2000/svg" xmlns:xlink="http://www.w3.org/1999/xlink" x="0px" y="0px"
	 viewBox="0 0 360 360" style="enable-background:new 0 0 360 360;" xml:space="preserve">
<style type="text/css">
	.st0{fill:none;stroke:#FFFFFF;stroke-width:3;stroke-miterlimit:10;}
	.st1{fill:#FFFFFF;}
</style>
<rect x="68.4" y="68.4" class="st0" width="223.2" height="223.2"/>
<g>
	<rect x="193.6" y="139.2" class="st1" width="13.6" height="13.6"/>
	<rect x="193.6" y="125.6" class="st1" width="13.6" height="13.6"/>
	<rect x="139.2" y="125.6" class="st1" width="13.6" height="13.6"/>
	<rect x="193.6" y="207.2" class="st1" width="13.6" height="13.6"/>
	<rect x="180" y="220.8" class="st1" width="13.6" height="13.6"/>
	<rect x="180" y="193.6" class="st1" width="13.6" height="13.6"/>
	<rect x="166.4" y="220.8" class="st1" width="13.6" height="13.6"/>
	<rect x="166.4" y="193.6" class="st1" width="13.6" height="13.6"/>
	<rect x="152.8" y="193.6" class="st1" width="13.6" height="13.6"/>
	<rect x="207.2" y="139.2" class="st1" width="13.6" height="13.6"/>
	<rect x="207.2" y="125.6" class="st1" width="13.6" height="13.6"/>
	<rect x="193.6" y="193.6" class="st1" width="13.6" height="13.6"/>
	<rect x="193.6" y="220.8" class="st1" width="13.6" height="13.6"/>
	<rect x="152.8" y="207.2" class="st1" width="13.6" height="13.6"/>
	<rect x="139.2" y="139.2" class="st1" width="13.6" height="13.6"/>
	<rect x="152.8" y="139.2" class="st1" width="13.6" height="13.6"/>
	<rect x="152.8" y="125.6" class="st1" width="13.6" height="13.6"/>
	<rect x="152.8" y="220.8" class="st1" width="13.6" height="13.6"/>
	<rect x="180" y="166.4" class="st1" width="13.6" height="13.6"/>
	<rect x="166.4" y="166.4" class="st1" width="13.6" height="13.6"/>
</g>
</svg>
