<?xml version="1.0" encoding="utf-8"?>
<!-- Generator: Adobe Illustrator 22.0.1, SVG Export Plug-In . SVG Version: 6.00 Build 0)  -->
<svg version="1.1" id="Layer_1" xmlns="http://www.w3.org/2000/svg" xmlns:xlink="http://www.w3.org/1999/xlink" x="0px" y="0px"
	 viewBox="0 0 360 360" style="enable-background:new 0 0 360 360;" xml:space="preserve">
<style type="text/css">
	.st0{fill:none;stroke:#FFFFFF;stroke-width:3;stroke-miterlimit:10;}
	.st1{fill:#FFFFFF;}
</style>
<rect x="68.4" y="68.4" class="st0" width="223.2" height="223.2"/>
<g>
	<rect x="207" y="153" class="st1" width="13.5" height="13.5"/>
	<rect x="193.5" y="139.5" class="st1" width="13.5" height="13.5"/>
	<rect x="193.5" y="220.5" class="st1" width="13.5" height="13.5"/>
	<rect x="153" y="220.5" class="st1" width="13.5" height="13.5"/>
	<rect x="166.5" y="193.5" class="st1" width="13.5" height="13.5"/>
	<rect x="180" y="193.5" class="st1" width="13.5" height="13.5"/>
	<rect x="166.5" y="220.5" class="st1" width="13.5" height="13.5"/>
	<rect x="207" y="139.5" class="st1" width="13.5" height="13.5"/>
	<rect x="207" y="220.5" class="st1" width="13.5" height="13.5"/>
	<rect x="220.5" y="139.5" class="st1" width="13.5" height="13.5"/>
	<rect x="166.5" y="180" class="st1" width="13.5" height="13.5"/>
	<rect x="180" y="180" class="st1" width="13.5" height="13.5"/>
	<rect x="139.5" y="139.5" class="st1" width="13.5" height="13.5"/>
	<rect x="139.5" y="153" class="st1" width="13.5" height="13.5"/>
	<rect x="126" y="139.5" class="st1" width="13.5" height="13.5"/>
	<rect x="153" y="139.5" class="st1" width="13.5" height="13.5"/>
	<rect x="139.5" y="126" class="st1" width="13.5" height="13.5"/>
	<rect x="126" y="126" class="st1" width="13.5" height="13.5"/>
	<rect x="153" y="126" class="st1" width="13.5" height="13.5"/>
	<rect x="166.5" y="166.5" class="st1" width="13.5" height="13.5"/>
	<rect x="180" y="220.5" class="st1" width="13.5" height="13.5"/>
	<rect x="220.5" y="207" class="st1" width="13.5" height="13.5"/>
	<rect x="220.5" y="220.5" class="st1" width="13.5" height="13.5"/>
	<rect x="193.5" y="126" class="st1" width="13.5" height="13.5"/>
	<rect x="207" y="126" class="st1" width="13.5" height="13.5"/>
	<rect x="220.5" y="126" class="st1" width="13.5" height="13.5"/>
</g>
</svg>
